<mxfile host="app.diagrams.net" modified="2020-07-24T11:30:33.948Z" agent="5.0 (Windows NT 10.0; Win64; x64) AppleWebKit/537.36 (KHTML, like Gecko) Chrome/79.0.3945.117 Safari/537.36" etag="9XfW622Rp8JrFnZ2JDfy" version="13.5.1" type="github">
  <diagram id="31b32b95-0358-9bc7-6ba0-a27c054ed1a7" name="Page-1">
    <mxGraphModel dx="2249" dy="762" grid="1" gridSize="10" guides="1" tooltips="1" connect="1" arrows="1" fold="1" page="1" pageScale="1" pageWidth="827" pageHeight="1169" background="#ffffff" math="0" shadow="0">
      <root>
        <mxCell id="0" />
        <mxCell id="1" parent="0" />
        <mxCell id="rQceNf_5XOFKksLvS2tI-96" style="edgeStyle=orthogonalEdgeStyle;rounded=0;orthogonalLoop=1;jettySize=auto;html=1;fillColor=#1ba1e2;strokeColor=#006EAF;strokeWidth=3;" edge="1" parent="1" source="rQceNf_5XOFKksLvS2tI-95" target="rQceNf_5XOFKksLvS2tI-99">
          <mxGeometry relative="1" as="geometry">
            <mxPoint x="-510" y="244" as="targetPoint" />
            <Array as="points" />
          </mxGeometry>
        </mxCell>
        <mxCell id="rQceNf_5XOFKksLvS2tI-95" value="Opt Out Count JavaScript" style="shape=image;html=1;verticalAlign=top;verticalLabelPosition=bottom;labelBackgroundColor=#ffffff;imageAspect=0;aspect=fixed;image=https://cdn4.iconfinder.com/data/icons/file-names-25/512/1-128.png" vertex="1" parent="1">
          <mxGeometry x="-730" y="200" width="88" height="88" as="geometry" />
        </mxCell>
        <mxCell id="rQceNf_5XOFKksLvS2tI-101" style="edgeStyle=orthogonalEdgeStyle;rounded=0;orthogonalLoop=1;jettySize=auto;html=1;strokeWidth=3;fillColor=#1ba1e2;strokeColor=#006EAF;" edge="1" parent="1" source="rQceNf_5XOFKksLvS2tI-99" target="rQceNf_5XOFKksLvS2tI-100">
          <mxGeometry relative="1" as="geometry" />
        </mxCell>
        <mxCell id="rQceNf_5XOFKksLvS2tI-99" value="Country Count JavaScript" style="shape=image;html=1;verticalAlign=top;verticalLabelPosition=bottom;labelBackgroundColor=#ffffff;imageAspect=0;aspect=fixed;image=https://cdn4.iconfinder.com/data/icons/file-names-25/512/1-128.png" vertex="1" parent="1">
          <mxGeometry x="-520" y="200" width="88" height="88" as="geometry" />
        </mxCell>
        <mxCell id="rQceNf_5XOFKksLvS2tI-102" style="edgeStyle=orthogonalEdgeStyle;rounded=0;orthogonalLoop=1;jettySize=auto;html=1;fillColor=#0050ef;strokeColor=#001DBC;strokeWidth=3;" edge="1" parent="1" source="rQceNf_5XOFKksLvS2tI-100" target="rQceNf_5XOFKksLvS2tI-103">
          <mxGeometry relative="1" as="geometry">
            <mxPoint x="-120" y="245" as="targetPoint" />
          </mxGeometry>
        </mxCell>
        <mxCell id="rQceNf_5XOFKksLvS2tI-100" value="Data Approval" style="shape=image;html=1;verticalAlign=top;verticalLabelPosition=bottom;labelBackgroundColor=#ffffff;imageAspect=0;aspect=fixed;image=https://cdn1.iconfinder.com/data/icons/handy-vol-1-2/128/handyArtboard_13-128.png;sketch=0;perimeterSpacing=1;" vertex="1" parent="1">
          <mxGeometry x="-320" y="189" width="110" height="110" as="geometry" />
        </mxCell>
        <mxCell id="rQceNf_5XOFKksLvS2tI-108" style="edgeStyle=orthogonalEdgeStyle;rounded=0;orthogonalLoop=1;jettySize=auto;html=1;entryX=0.089;entryY=0.407;entryDx=0;entryDy=0;entryPerimeter=0;" edge="1" parent="1" source="rQceNf_5XOFKksLvS2tI-103" target="rQceNf_5XOFKksLvS2tI-107">
          <mxGeometry relative="1" as="geometry" />
        </mxCell>
        <mxCell id="rQceNf_5XOFKksLvS2tI-103" value="Execution Approval" style="shape=image;html=1;verticalAlign=top;verticalLabelPosition=bottom;labelBackgroundColor=#ffffff;imageAspect=0;aspect=fixed;image=https://cdn1.iconfinder.com/data/icons/handy-vol-1-2/128/handyArtboard_13-128.png" vertex="1" parent="1">
          <mxGeometry x="-100" y="189" width="110" height="110" as="geometry" />
        </mxCell>
        <mxCell id="rQceNf_5XOFKksLvS2tI-107" value="Campaign Scheduler" style="verticalLabelPosition=bottom;html=1;verticalAlign=top;align=center;strokeColor=none;fillColor=#00BEF2;shape=mxgraph.azure.scheduler;pointerEvents=1;" vertex="1" parent="1">
          <mxGeometry x="80" y="200" width="90" height="108" as="geometry" />
        </mxCell>
      </root>
    </mxGraphModel>
  </diagram>
</mxfile>
